<mxfile host="65bd71144e">
    <diagram id="eW97uDvbZvaF0jQ9b3zy" name="Page-1">
        <mxGraphModel dx="621" dy="613" grid="1" gridSize="10" guides="1" tooltips="1" connect="1" arrows="1" fold="1" page="1" pageScale="1" pageWidth="1000" pageHeight="1000" math="1" shadow="0">
            <root>
                <mxCell id="0"/>
                <mxCell id="1" parent="0"/>
                <mxCell id="3" value="" style="endArrow=classic;html=1;" edge="1" parent="1">
                    <mxGeometry width="50" height="50" relative="1" as="geometry">
                        <mxPoint x="200" y="480" as="sourcePoint"/>
                        <mxPoint x="640" y="480" as="targetPoint"/>
                    </mxGeometry>
                </mxCell>
                <mxCell id="4" value="" style="endArrow=classic;html=1;" edge="1" parent="1">
                    <mxGeometry width="50" height="50" relative="1" as="geometry">
                        <mxPoint x="280" y="560" as="sourcePoint"/>
                        <mxPoint x="280" y="120" as="targetPoint"/>
                    </mxGeometry>
                </mxCell>
                <mxCell id="5" value="" style="curved=1;endArrow=none;html=1;endFill=0;" edge="1" parent="1">
                    <mxGeometry width="50" height="50" relative="1" as="geometry">
                        <mxPoint x="440" y="480" as="sourcePoint"/>
                        <mxPoint x="280" y="280" as="targetPoint"/>
                        <Array as="points">
                            <mxPoint x="440" y="400"/>
                            <mxPoint x="410" y="330"/>
                            <mxPoint x="330" y="280"/>
                        </Array>
                    </mxGeometry>
                </mxCell>
                <mxCell id="7" value="" style="curved=1;endArrow=none;html=1;endFill=0;" edge="1" parent="1">
                    <mxGeometry width="50" height="50" relative="1" as="geometry">
                        <mxPoint x="432" y="319" as="sourcePoint"/>
                        <mxPoint x="332" y="239" as="targetPoint"/>
                        <Array as="points">
                            <mxPoint x="382" y="319"/>
                            <mxPoint x="332" y="269"/>
                        </Array>
                    </mxGeometry>
                </mxCell>
                <mxCell id="8" value="" style="curved=1;endArrow=none;html=1;endFill=0;" edge="1" parent="1">
                    <mxGeometry width="50" height="50" relative="1" as="geometry">
                        <mxPoint x="502" y="386" as="sourcePoint"/>
                        <mxPoint x="402" y="306" as="targetPoint"/>
                        <Array as="points">
                            <mxPoint x="452" y="386"/>
                            <mxPoint x="402" y="336"/>
                        </Array>
                    </mxGeometry>
                </mxCell>
            </root>
        </mxGraphModel>
    </diagram>
</mxfile>